HIERARCHY
ROOT ui
{
	 OFFSET 0 0 0
	 CHANNELS 3 XPosition YPosition Z Position
	 EndSite
	 {
	 OFFSET 0 -1 0
	 }
}
ROOT li
{
	 OFFSET 0 0 0
	 CHANNELS 3 XPosition YPosition Z Position
	 EndSite
	 {
	 OFFSET 0 -1 0
	 }
}
ROOT ul
{
	 OFFSET 0 0 0
	 CHANNELS 3 XPosition YPosition Z Position
	 EndSite
	 {
	 OFFSET 0 -1 0
	 }
}
ROOT ll
{
	 OFFSET 0 0 0
	 CHANNELS 3 XPosition YPosition Z Position
	 EndSite
	 {
	 OFFSET 0 -1 0
	 }
}
ROOT tt
{
	 OFFSET 0 0 0
	 CHANNELS 3 XPosition YPosition Z Position
	 EndSite
	 {
	 OFFSET 0 -1 0
	 }
}
ROOT tb
{
	 OFFSET 0 0 0
	 CHANNELS 3 XPosition YPosition Z Position
	 EndSite
	 {
	 OFFSET 0 -1 0
	 }
}
ROOT td
{
	 OFFSET 0 0 0
	 CHANNELS 3 XPosition YPosition Z Position
	 EndSite
	 {
	 OFFSET 0 -1 0
	 }
}
ROOT v
{
	 OFFSET 0 0 0
	 CHANNELS 3 XPosition YPosition Z Position
	 EndSite
	 {
	 OFFSET 0 -1 0
	 }
}
ROOT bn
{
	 OFFSET 0 0 0
	 CHANNELS 3 XPosition YPosition Z Position
	 EndSite
	 {
	 OFFSET 0 -1 0
	 }
}
MOTION
Frames: 16
Frame Time: 0.002
0.007723749160766602	0.0037725989818572997	0		0.56901318359375	-2.548947998046875	0		-0.9814852905273438	-0.053099514007568356	0		-0.4308628540039062	-2.6966396484375	0		1.5961796875	-0.7494788208007812	0		3.022565185546875	-0.03251153564453125	0		4.5207578125	0.4551006164550781	0		5.94156396484375	0.4860549011230469	0		-0.09165961456298828	5.9285908203125	0		
0.011874281883239746	-1.6381700336933136E-4	0		0.59397998046875	-2.550323486328125	0		-0.9940422973632812	-0.0406341438293457	0		-0.378282958984375	-2.718435791015625	0		1.5889998779296874	-0.713347412109375	0		3.00707080078125	-0.07136994171142579	0		4.5118046875	0.4429888916015625	0		5.932853515625	0.4868099060058594	0		-0.2536346893310547	5.88972900390625	0		
0.00808292293548584	-0.001961706042289734	0		0.5889286499023437	-2.554153564453125	0		-0.990727294921875	-0.036474651336669925	0		-0.42748959350585936	-2.729364501953125	0		1.5884603271484374	-0.6983417358398437	0		3.02132568359375	-0.07076368713378907	0		4.53284423828125	0.4293362731933594	0		5.93984375	0.47029269409179686	0		-0.12048966217041016	5.90943212890625	0		
-0.00466152286529541	-0.0026084799766540527	0		0.5869721069335937	-2.555052734375	0		-0.9954945678710938	-0.038187763214111325	0		-0.3738236389160156	-2.75021826171875	0		1.5910279541015624	-0.679401123046875	0		3.018294677734375	-0.08684202575683594	0		4.53190966796875	0.4160957336425781	0		5.93532275390625	0.4790068359375	0		-0.2530984039306641	5.89103125	0		
0.0044730048179626464	-0.011687189102172852	0		0.535257568359375	-2.545040771484375	0		-0.9921189575195313	-0.0340806770324707	0		-0.4389056701660156	-2.758886474609375	0		1.6056324462890625	-0.6607005004882812	0		3.0277216796875	-0.08015545654296875	0		4.54713134765625	0.409556396484375	0		5.94368115234375	0.47948934936523435	0		-0.10575128173828124	5.92140576171875	0		
0.006056949138641358	0.0013477269411087036	0		0.5904096069335938	-2.54605322265625	0		-0.9864435424804687	-0.016051307678222656	0		-0.4088768005371094	-2.765360595703125	0		1.6057520751953125	-0.6167465209960937	0		3.03256884765625	-0.1064019546508789	0		4.55238818359375	0.4031991882324219	0		5.94307470703125	0.48014483642578126	0		-0.10597334289550782	5.92248779296875	0		
0.005458067893981933	0.0023855829238891603	0		0.5636895751953125	-2.542564208984375	0		-0.9939483032226563	-0.009819029808044433	0		-0.41680230712890626	-2.7721630859375	0		1.6053768310546874	-0.601813720703125	0		3.057071533203125	-0.10002945709228515	0		4.548439453125	0.3840054626464844	0		5.9376767578125	0.4898944091796875	0		-0.12039694213867187	5.91279833984375	0		
0.0026767570972442627	-0.008578057289123536	0		0.5868881225585938	-2.547052001953125	0		-0.9945042724609375	-0.008764577865600585	0		-0.4138399353027344	-2.788214599609375	0		1.6050506591796876	-0.5869124755859375	0		3.0331748046875	-0.11677280426025391	0		4.564771484375	0.3774189758300781	0		5.93298095703125	0.4816239318847656	0		-0.12060942840576172	5.91380224609375	0		
-0.0027384159564971923	-0.002533524990081787	0		0.5494396362304688	-2.535433837890625	0		-1.0068236083984374	0.002463992118835449	0		-0.3995374755859375	-2.789525146484375	0		1.605039306640625	-0.558051025390625	0		3.058540283203125	-0.12247234344482422	0		4.579880859375	0.3568306884765625	0		5.92834521484375	0.4743396911621094	0		-0.23901422119140625	5.904994140625	0		
0.0017017860412597656	-0.006725694179534912	0		0.5856569213867188	-2.545258544921875	0		-0.9904042358398437	-0.0029071280956268312	0		-0.45925823974609375	-2.79448388671875	0		1.50779345703125	-0.5433892211914062	0		3.07853564453125	-0.1501116638183594	0		4.57814990234375	0.34253286743164063	0		5.93205517578125	0.4828777770996094	0		-0.10483780670166015	5.92336181640625	0		
0.008416496276855468	9.898279905319214E-4	0		0.53732470703125	-2.533524169921875	0		-0.9826895751953125	0.004833911895751953	0		-0.4150367736816406	-2.806466796875	0		1.6445177001953124	-0.5352134399414062	0		3.098355712890625	-0.13678250122070312	0		4.59874462890625	0.342778076171875	0		5.9368115234375	0.49136492919921876	0		-0.22317654418945312	5.9154619140625	0		
0.008047024726867675	0.0017862180471420288	0		0.5887430419921875	-2.538740234375	0		-0.995865966796875	0.015918222427368164	0		-0.4324650268554687	-2.8023291015625	0		1.6416024169921875	-0.5094338073730469	0		3.076412353515625	-0.16571151733398437	0		4.59572314453125	0.3084242858886719	0		5.93131103515625	0.4840067138671875	0		-0.10704954528808594	5.92805517578125	0		
5.91288983821869E-4	-0.004336812973022461	0		0.5743950805664062	-2.533755126953125	0		-1.0043209228515626	0.00985520839691162	0		-0.37421896362304685	-2.818692626953125	0		1.644333984375	-0.5048163757324219	0		3.101962890625	-0.1715899658203125	0		4.62027392578125	0.3015032043457031	0		5.92685546875	0.4765851135253906	0		-0.26894216918945313	5.88788427734375	0		
3.112480044364929E-4	-0.003649867057800293	0		0.5838402709960937	-2.54228076171875	0		-1.0005245971679688	0.014504881858825683	0		-0.4465787048339844	-2.81561328125	0		1.651166748046875	-0.497330078125	0		3.11240625	-0.18523439025878907	0		4.62485205078125	0.29391204833984375	0		5.92659423828125	0.47703616333007814	0		-0.1346103515625	5.90701416015625	0		
7.152199745178223E-5	-0.0030187230110168455	0		0.5596012573242187	-2.536213134765625	0		-0.9967068481445313	0.018098051071166993	0		-0.4170877075195312	-2.823538330078125	0		1.6570599365234375	-0.4888802490234375	0		3.106294921875	-0.1776116180419922	0		4.6394677734375	0.2860755615234375	0		5.94017919921875	0.4671681518554687	0		-0.23861817932128906	5.90864501953125	0		
-1.3134999573230743E-4	-0.002442996025085449	0		0.5593001708984375	-2.5356591796875	0		-0.998735595703125	0.027749181747436524	0		-0.4754660339355469	-2.825831298828125	0		1.6629908447265624	-0.48048550415039065	0		3.127543212890625	-0.2055738220214844	0		4.6500048828125	0.2722626953125	0		5.93034228515625	0.4857024230957031	0		-0.1061935806274414	5.928689453125	0		
